<?xml version="1.0" standalone="no"?>
<!DOCTYPE svg PUBLIC "-//W3C//DTD SVG 20010904//EN"
 "http://www.w3.org/TR/2001/REC-SVG-20010904/DTD/svg10.dtd">
<svg version="1.0" xmlns="http://www.w3.org/2000/svg"
 width="298.000000pt" height="298.000000pt" viewBox="0 0 298.000000 298.000000"
 preserveAspectRatio="xMidYMid meet">
<metadata>
Created by potrace 1.11, written by Peter Selinger 2001-2013
</metadata>
<g transform="translate(0.000000,298.000000) scale(0.100000,-0.100000)"
fill="#000000" stroke="none">
<path d="M370 1991 c0 -42 1 -43 68 -56 l32 -7 0 -373 0 -373 -51 -17 c-49
-17 -50 -18 -47 -53 l3 -37 172 -3 173 -2 6 25 c10 40 -1 52 -63 72 l-58 18
-3 423 -2 422 -115 0 -115 0 0 -39z"/>
<path d="M1350 1990 c0 -37 2 -40 38 -49 20 -6 43 -11 50 -11 9 0 12 -82 12
-374 l0 -374 -50 -17 c-49 -16 -50 -17 -50 -57 l0 -41 263 6 c144 4 304 7 355
7 l93 0 -3 38 c-3 34 -6 38 -48 50 -25 8 -51 15 -57 18 -10 2 -13 48 -13 182
l0 178 33 30 c49 46 59 52 98 59 l36 7 12 -47 12 -46 42 3 c41 3 42 4 45 41
l3 38 52 -3 52 -3 5 -235 c4 -168 9 -242 18 -258 37 -65 145 -81 240 -37 57
26 65 47 35 84 -17 20 -20 20 -58 6 -53 -19 -62 -18 -85 5 -19 19 -20 33 -20
230 l0 209 88 3 87 3 0 45 0 45 -85 5 -85 5 -3 83 c-2 53 -7 85 -15 87 -7 3
-34 -1 -62 -8 l-50 -12 -5 -75 -5 -74 -38 -9 c-28 -7 -46 -5 -71 7 -42 20
-145 21 -189 3 -18 -8 -47 -26 -64 -41 -34 -29 -38 -27 -45 19 -3 18 -12 20
-105 23 -95 2 -102 1 -108 -18 -12 -37 4 -58 53 -72 l47 -14 0 -223 0 -224
-54 -18 c-50 -17 -58 -18 -107 -3 l-54 15 0 409 c0 225 -3 415 -6 424 -5 13
-25 16 -120 16 l-114 0 0 -40z"/>
<path d="M687 1734 c-4 -4 -7 -20 -7 -36 0 -22 7 -32 33 -44 35 -17 34 -15
152 -349 25 -71 54 -150 64 -175 l17 -45 71 -3 71 -3 16 43 c9 24 55 151 104
283 86 233 89 240 120 250 34 10 47 33 37 65 -6 20 -13 20 -143 18 l-137 -3 0
-34 c0 -29 4 -36 32 -45 17 -6 34 -14 38 -17 3 -4 -19 -85 -50 -180 -70 -215
-76 -232 -85 -222 -9 9 -130 383 -130 400 0 6 17 15 38 20 34 8 37 12 37 43
l0 35 -136 3 c-74 1 -138 -1 -142 -4z"/>
</g>
</svg>
